<svg width="65" height="66" viewBox="0 0 65 66" fill="none" xmlns="http://www.w3.org/2000/svg">
<g id="Layer_1" clip-path="url(#clip0_102_27859)">
<g id="Group">
<path id="Vector" d="M27.219 22.0013C25.4586 20.918 24.1044 19.293 23.2919 17.2617C22.8857 16.1784 22.6148 14.9596 22.6148 13.8763C22.6148 10.2201 24.6461 6.83464 27.8961 5.20964C29.2502 4.53255 30.7398 4.1263 32.3648 4.1263C35.4794 4.1263 38.3232 5.48047 40.219 7.91797C41.5732 9.67838 42.2502 11.7096 42.2502 13.8763C42.2502 14.5534 42.2502 15.2305 42.1148 15.7721C41.5732 18.4805 39.9482 20.6471 37.7815 22.0013C41.5732 23.0846 44.9586 25.5221 47.2607 28.7721C47.2607 28.6367 47.3961 28.6367 47.3961 28.5013L50.1044 31.2096L61.4794 20.2409V26.3346H64.1877V15.7721H53.6252V18.4805H59.5836L49.969 27.6888L48.7502 26.1992C49.8336 23.8971 50.3752 21.4596 50.3752 18.8867C50.3752 9.0013 42.3857 1.01172 32.5002 1.01172C22.6148 1.01172 14.6252 9.0013 14.6252 18.8867C14.6252 22.4076 15.7086 25.9284 17.7398 28.7721C20.0419 25.5221 23.4273 23.2201 27.219 22.0013Z" fill="url(#paint0_linear_102_27859)"/>
<path id="Vector_2" d="M41.9793 33.918C42.2502 33.7825 42.521 33.5117 42.7918 33.3763C43.0627 33.2409 43.1981 33.1055 43.4689 32.8346C43.7397 32.5638 44.0106 32.4284 44.2814 32.1576C44.5522 32.0221 44.6877 31.7513 44.9585 31.6159C45.0939 31.4805 45.2293 31.3451 45.3647 31.2096C42.521 26.8763 37.7814 24.168 32.6356 24.168C27.4897 24.168 22.6147 26.8763 19.771 31.2096L20.1772 31.6159C20.3127 31.7513 20.5835 32.0221 20.8543 32.1576C21.1252 32.4284 21.396 32.5638 21.6668 32.8346C21.9377 32.9701 22.0731 33.2409 22.3439 33.3763C22.6147 33.5117 22.8856 33.7825 23.1564 33.918C23.4272 34.0534 23.5627 34.1888 23.8335 34.3242C23.9689 34.3242 23.9689 34.4596 24.1043 34.4596L18.2814 39.7409L13.0002 34.0534L1.0835 46.3763L2.97933 48.2721L12.7293 38.1159L17.8752 43.668L26.5418 35.8138C26.6772 35.8138 26.8127 35.9492 26.9481 35.9492C27.3543 36.0846 27.6252 36.0846 28.0314 36.2201C28.3022 36.2201 28.4377 36.3555 28.7085 36.3555C29.1147 36.4909 29.521 36.4909 29.9272 36.4909C30.0627 36.4909 30.3335 36.6263 30.4689 36.6263C31.146 36.6263 31.6877 36.7617 32.3647 36.7617C33.0418 36.7617 33.5835 36.7617 34.2606 36.6263C34.5314 36.6263 34.6668 36.6263 34.8022 36.4909C35.2085 36.4909 35.6147 36.3555 36.021 36.3555C36.2918 36.3555 36.4272 36.2201 36.6981 36.2201C37.1043 36.0846 37.3752 36.0846 37.7814 35.9492C38.0522 35.8138 38.3231 35.8138 38.4585 35.6784C38.7293 35.543 39.1356 35.4075 39.4064 35.2721C39.6772 35.1367 39.9481 35.0013 40.0835 34.8659C40.3543 34.7305 40.7606 34.5951 41.0314 34.3242C41.5731 34.1888 41.7085 34.0534 41.9793 33.918Z" fill="url(#paint1_linear_102_27859)"/>
<path id="Vector_3" d="M37.9167 9.67904C36.5626 7.91862 34.6667 6.9707 32.5001 6.9707C31.4167 6.9707 30.3334 7.24154 29.3855 7.7832C27.0834 9.00195 25.7292 11.304 25.7292 13.877C25.7292 14.6895 25.8647 15.502 26.1355 16.3145C27.0834 18.8874 29.6563 20.6478 32.5001 20.6478C35.7501 20.6478 38.4584 18.3457 39.1355 15.2311C39.2709 14.8249 39.2709 14.4186 39.2709 13.877C39.2709 12.3874 38.7292 10.8978 37.9167 9.67904Z" fill="url(#paint2_linear_102_27859)"/>
<path id="Vector_4" d="M40.7605 46.918H50.9167V64.6576H40.7605V46.918Z" fill="url(#paint3_linear_102_27859)"/>
<path id="Vector_5" d="M54.1667 39.877H64.323V64.6582H54.1667V39.877Z" fill="url(#paint4_linear_102_27859)"/>
<path id="Vector_6" d="M27.4897 42.9902H37.646V64.6569H27.4897V42.9902Z" fill="url(#paint5_linear_102_27859)"/>
<path id="Vector_7" d="M14.0835 50.5742H24.2397V64.6576H14.0835V50.5742Z" fill="url(#paint6_linear_102_27859)"/>
<path id="Vector_8" d="M0.677246 55.3145H10.8335V64.6582H0.677246V55.3145Z" fill="url(#paint7_linear_102_27859)"/>
</g>
</g>
<defs>
<linearGradient id="paint0_linear_102_27859" x1="14.6252" y1="16.1107" x2="64.1877" y2="16.1107" gradientUnits="userSpaceOnUse">
<stop stop-color="#0F6ECD"/>
<stop offset="1" stop-color="#30BCDD"/>
</linearGradient>
<linearGradient id="paint1_linear_102_27859" x1="1.0835" y1="36.2201" x2="45.3647" y2="36.2201" gradientUnits="userSpaceOnUse">
<stop stop-color="#0F6ECD"/>
<stop offset="1" stop-color="#30BCDD"/>
</linearGradient>
<linearGradient id="paint2_linear_102_27859" x1="25.7292" y1="13.8092" x2="39.2709" y2="13.8092" gradientUnits="userSpaceOnUse">
<stop stop-color="#0F6ECD"/>
<stop offset="1" stop-color="#30BCDD"/>
</linearGradient>
<linearGradient id="paint3_linear_102_27859" x1="40.7605" y1="55.7878" x2="50.9167" y2="55.7878" gradientUnits="userSpaceOnUse">
<stop stop-color="#0F6ECD"/>
<stop offset="1" stop-color="#30BCDD"/>
</linearGradient>
<linearGradient id="paint4_linear_102_27859" x1="54.1667" y1="52.2676" x2="64.323" y2="52.2676" gradientUnits="userSpaceOnUse">
<stop stop-color="#0F6ECD"/>
<stop offset="1" stop-color="#30BCDD"/>
</linearGradient>
<linearGradient id="paint5_linear_102_27859" x1="27.4897" y1="53.8236" x2="37.646" y2="53.8236" gradientUnits="userSpaceOnUse">
<stop stop-color="#0F6ECD"/>
<stop offset="1" stop-color="#30BCDD"/>
</linearGradient>
<linearGradient id="paint6_linear_102_27859" x1="14.0835" y1="57.6159" x2="24.2397" y2="57.6159" gradientUnits="userSpaceOnUse">
<stop stop-color="#0F6ECD"/>
<stop offset="1" stop-color="#30BCDD"/>
</linearGradient>
<linearGradient id="paint7_linear_102_27859" x1="0.677246" y1="59.9863" x2="10.8335" y2="59.9863" gradientUnits="userSpaceOnUse">
<stop stop-color="#0F6ECD"/>
<stop offset="1" stop-color="#30BCDD"/>
</linearGradient>
<clipPath id="clip0_102_27859">
<rect width="65" height="65" fill="white" transform="translate(0.000244141 0.333984)"/>
</clipPath>
</defs>
</svg>
